<?xml version="1.0" encoding="utf-8"?>
<!-- Generator: Adobe Illustrator 23.0.1, SVG Export Plug-In . SVG Version: 6.00 Build 0)  -->
<svg version="1.1" baseProfile="tiny" id="Layer_1" xmlns="http://www.w3.org/2000/svg" xmlns:xlink="http://www.w3.org/1999/xlink"
	 x="0px" y="0px" width="56px" height="90px" viewBox="0 0 56 90" overflow="inherit" xml:space="preserve">
<g id="lock">
	<path fill="#FFFFFF" stroke="#7DCCC8" stroke-width="2" stroke-miterlimit="10" d="M43.03,16.85c0-7.88-6.45-14.33-14.33-14.33
		H27.5c-7.88,0-14.33,6.45-14.33,14.33l0.39,31.62h5.6c0-0.11-0.02-12.16-0.02-12.27V17.39c0-4.93,4.03-8.96,8.96-8.96
		s8.96,4.03,8.96,8.96v4.82c0,1.64,1.34,2.99,2.99,2.99c1.64,0,2.99-1.34,2.99-2.99V16.85z"/>
	<path fill="#FFFFFF" stroke="#231F20" stroke-width="2" stroke-miterlimit="10" d="M39.3,87.99H16.44C7.91,87.99,1,81.08,1,72.55
		V49.69c0-8.53,6.91-15.44,15.44-15.44H39.3c8.53,0,15.44,6.91,15.44,15.44v22.86C54.75,81.08,47.83,87.99,39.3,87.99z"/>
	<path fill="#FFFFFF" stroke="#231F20" stroke-width="2" stroke-miterlimit="10" d="M35.04,56.15c0-4.1-3.32-7.42-7.42-7.42
		c-4.1,0-7.42,3.32-7.42,7.42c0,2.86,1.62,5.33,3.98,6.57v8.01c0,1.89,1.55,3.44,3.44,3.44c1.89,0,3.44-1.55,3.44-3.44v-8.01
		C33.42,61.48,35.04,59.01,35.04,56.15z"/>
</g>
</svg>
